<?xml version="1.0" encoding="UTF-8" standalone="no"?>
<!DOCTYPE svg PUBLIC "-//W3C//DTD SVG 1.1//EN"
 "http://www.w3.org/Graphics/SVG/1.1/DTD/svg11.dtd">
<!-- Generated by graphviz version 2.40.1 (20161225.0304)
 -->
<!-- Title: G Pages: 1 -->
<svg width="324pt" height="152pt"
 viewBox="0.00 0.00 324.00 152.00" xmlns="http://www.w3.org/2000/svg" xmlns:xlink="http://www.w3.org/1999/xlink">
<g id="graph0" class="graph" transform="scale(1 1) rotate(0) translate(4 148)">
<title>G</title>
<polygon fill="#ffffff" stroke="transparent" points="-4,4 -4,-148 320,-148 320,4 -4,4"/>
<!-- A0 -->
<g id="node1" class="node">
<title>A0</title>
<polygon fill="none" stroke="#000000" points="0,-112 0,-144 170,-144 170,-112 0,-112"/>
<text text-anchor="start" x="71.3875" y="-125" font-family="Helvetica,sans-Serif" font-size="10.00" fill="#000000">Model</text>
<polygon fill="none" stroke="#000000" points="0,-68 0,-112 170,-112 170,-68 0,-68"/>
<text text-anchor="start" x="60.8255" y="-93" font-family="Helvetica,sans-Serif" font-size="10.00" fill="#000000">path:String</text>
<text text-anchor="start" x="48.887" y="-81" font-family="Helvetica,sans-Serif" font-size="10.00" fill="#000000">model:TF.Model</text>
<polygon fill="none" stroke="#000000" points="0,0 0,-68 170,-68 170,0 0,0"/>
<text text-anchor="start" x="9.575" y="-49" font-family="Helvetica,sans-Serif" font-size="10.00" fill="#000000">+Model(path:String,hParams:Dict)</text>
<text text-anchor="start" x="18.7395" y="-37" font-family="Helvetica,sans-Serif" font-size="10.00" fill="#000000">+fit(train:Dataset, val:Dataset)</text>
<text text-anchor="start" x="42.908" y="-25" font-family="Helvetica,sans-Serif" font-size="10.00" fill="#000000">+eval(test:Dataset)</text>
<text text-anchor="start" x="59.581" y="-13" font-family="Helvetica,sans-Serif" font-size="10.00" fill="#000000">+predict(...)</text>
</g>
<!-- A1 -->
<g id="node2" class="node">
<title>A1</title>
<polygon fill="none" stroke="#000000" points="188,-106 188,-138 316,-138 316,-106 188,-106"/>
<text text-anchor="start" x="225.88" y="-119" font-family="Helvetica,sans-Serif" font-size="10.00" fill="#000000">DataLoader</text>
<polygon fill="none" stroke="#000000" points="188,-86 188,-106 316,-106 316,-86 188,-86"/>
<polygon fill="none" stroke="#000000" points="188,-6 188,-86 316,-86 316,-6 188,-6"/>
<text text-anchor="start" x="214.3475" y="-67" font-family="Helvetica,sans-Serif" font-size="10.00" fill="#000000">+DataLoad(path)</text>
<text text-anchor="start" x="197.966" y="-55" font-family="Helvetica,sans-Serif" font-size="10.00" fill="#000000">+splitDataset(nFolds:int)</text>
<text text-anchor="start" x="221.576" y="-43" font-family="Helvetica,sans-Serif" font-size="10.00" fill="#000000">+getDataset()</text>
<text text-anchor="start" x="224.505" y="-31" font-family="Helvetica,sans-Serif" font-size="10.00" fill="#000000">&#45;readTrack()</text>
<text text-anchor="start" x="204.7685" y="-19" font-family="Helvetica,sans-Serif" font-size="10.00" fill="#000000">&#45;getDenseEncoding()</text>
</g>
</g>
</svg>
