<?xml version="1.0" encoding="UTF-8" standalone="no"?>
<!DOCTYPE svg PUBLIC "-//W3C//DTD SVG 1.1//EN"
 "http://www.w3.org/Graphics/SVG/1.1/DTD/svg11.dtd">
<!-- Generated by graphviz version 2.40.1 (20161225.0304)
 -->
<!-- Title: G Pages: 1 -->
<svg width="119pt" height="250pt"
 viewBox="0.00 0.00 119.00 250.00" xmlns="http://www.w3.org/2000/svg" xmlns:xlink="http://www.w3.org/1999/xlink">
<g id="graph0" class="graph" transform="scale(1 1) rotate(0) translate(4 246)">
<title>G</title>
<polygon fill="#ffffff" stroke="transparent" points="-4,4 -4,-246 115,-246 115,4 -4,4"/>
<!-- A0 -->
<g id="node1" class="node">
<title>A0</title>
<polygon fill="none" stroke="#000000" points="13.5,-210 13.5,-242 97.5,-242 97.5,-210 13.5,-210"/>
<text text-anchor="start" x="33.554" y="-223" font-family="Helvetica,sans-Serif" font-size="10.00" fill="#000000">Converter</text>
<polygon fill="none" stroke="#000000" points="13.5,-190 13.5,-210 97.5,-210 97.5,-190 13.5,-190"/>
<polygon fill="none" stroke="#000000" points="13.5,-146 13.5,-190 97.5,-190 97.5,-146 13.5,-146"/>
<text text-anchor="start" x="35.7785" y="-171" font-family="Helvetica,sans-Serif" font-size="10.00" fill="#000000">convert()</text>
<text text-anchor="start" x="23.2815" y="-159" font-family="Helvetica,sans-Serif" font-size="10.00" fill="#000000">isConvertible()</text>
</g>
<!-- A1 -->
<g id="node2" class="node">
<title>A1</title>
<polygon fill="none" stroke="#000000" points=".5,-64 .5,-96 111.5,-96 111.5,-64 .5,-64"/>
<text text-anchor="start" x="10.4335" y="-77" font-family="Helvetica,sans-Serif" font-size="10.00" fill="#000000">phaseShiftConverter</text>
<polygon fill="none" stroke="#000000" points=".5,-44 .5,-64 111.5,-64 111.5,-44 .5,-44"/>
<polygon fill="none" stroke="#000000" points=".5,0 .5,-44 111.5,-44 111.5,0 .5,0"/>
<text text-anchor="start" x="11.549" y="-25" font-family="Helvetica,sans-Serif" font-size="10.00" fill="#000000">convert(inputFolder,</text>
<text text-anchor="start" x="26.2715" y="-13" font-family="Helvetica,sans-Serif" font-size="10.00" fill="#000000">outputFolder)</text>
</g>
<!-- A0&#45;&gt;A1 -->
<g id="edge1" class="edge">
<title>A0&#45;&gt;A1</title>
<path fill="none" stroke="#000000" d="M55.5,-135.4923C55.5,-122.4385 55.5,-108.7404 55.5,-96.1599"/>
<polygon fill="none" stroke="#000000" points="52.0001,-135.7895 55.5,-145.7895 59.0001,-135.7895 52.0001,-135.7895"/>
</g>
</g>
</svg>
